<?xml version="1.0" encoding="UTF-8" standalone="no"?>
<!-- Generator: Adobe Illustrator 14.0.0, SVG Export Plug-In  -->

<svg
   xmlns:dc="http://purl.org/dc/elements/1.1/"
   xmlns:cc="http://creativecommons.org/ns#"
   xmlns:rdf="http://www.w3.org/1999/02/22-rdf-syntax-ns#"
   xmlns:svg="http://www.w3.org/2000/svg"
   xmlns="http://www.w3.org/2000/svg"
   xmlns:sodipodi="http://sodipodi.sourceforge.net/DTD/sodipodi-0.dtd"
   xmlns:inkscape="http://www.inkscape.org/namespaces/inkscape"
   version="1.1"
   x="0px"
   y="0px"
   width="24"
   height="24"
   viewBox="-0.866 -0.866 24 24"
   enable-background="new -0.866 -0.866 285 285"
   xml:space="preserve"
   id="svg2"
   inkscape:version="0.48.4 r9939"
   sodipodi:docname="ubuntu.svg"><metadata
     id="metadata12"><rdf:RDF><cc:Work
         rdf:about=""><dc:format>image/svg+xml</dc:format><dc:type
           rdf:resource="http://purl.org/dc/dcmitype/StillImage" /></cc:Work></rdf:RDF></metadata><sodipodi:namedview
     pagecolor="#000000"
     bordercolor="#666666"
     borderopacity="1"
     objecttolerance="10"
     gridtolerance="10"
     guidetolerance="10"
     inkscape:pageopacity="1"
     inkscape:pageshadow="2"
     inkscape:window-width="1331"
     inkscape:window-height="748"
     id="namedview10"
     showgrid="false"
     inkscape:zoom="13.249123"
     inkscape:cx="16.211081"
     inkscape:cy="9.6610168"
     inkscape:window-x="33"
     inkscape:window-y="-3"
     inkscape:window-maximized="1"
     inkscape:current-layer="svg2" /><defs
     id="defs4" /><path
     d="M 11.132677,-0.866 C 4.5053222,-0.866 -0.866,4.50515 -0.866,11.13268 -0.866,17.75978 4.5053222,23.134 11.132677,23.134 17.760032,23.134 23.134,17.75969 23.134,11.13268 23.134,4.50515 17.760032,-0.866 11.132677,-0.866 z m 4.122148,3.33106 c 0.258177,0.007 0.519925,0.0761 0.759343,0.2143 0.766306,0.44247 1.027182,1.42177 0.58472,2.18808 C 16.156681,5.6334 15.177038,5.8947 14.410816,5.45216 13.644764,5.00995 13.383804,4.0327 13.826096,3.26673 14.130288,2.73989 14.686834,2.45031 15.254825,2.46506 z m -4.122148,1.70918 c 0.644219,0 1.268013,0.0875 1.859993,0.25135 0.104647,0.64354 0.486446,1.23859 1.095359,1.59012 0.608152,0.35119 1.311764,0.38358 1.920847,0.15346 1.184723,1.16474 1.95666,2.7516 2.069011,4.51637 l -2.28332,0.0317 C 15.584342,8.32696 13.57756,6.45222 11.132677,6.45222 c -0.704501,0 -1.371939,0.15775 -1.971117,0.43655 L 8.047681,4.89384 C 8.9774766,4.43326 10.024745,4.17419 11.132677,4.17419 z M 7.2724632,5.34368 8.4419043,7.30421 C 7.2387241,8.15104 6.452267,9.54935 6.452267,11.13268 c 0,1.58358 0.7864571,2.98181 1.9896373,3.82846 L 7.2724632,16.92432 C 5.8704039,15.98767 4.8269873,14.55629 4.393839,12.8789 4.8999689,12.4665 5.2219727,11.83667 5.2219727,11.13268 5.2219727,10.42851 4.8998842,9.80159 4.393839,9.3891 4.827072,7.71188 5.8704039,6.28042 7.2724632,5.34368 z M 2.9730475,9.53197 c 0.8847536,0 1.6033514,0.71561 1.6033514,1.60071 0,0.88467 -0.7186824,1.60335 -1.6033514,1.60335 -0.8850076,0 -1.6007055,-0.71868 -1.6007055,-1.60335 0,-0.88501 0.7156979,-1.60071 1.6007055,-1.60071 z m 12.8215195,2.0161 2.28332,0.0344 c -0.112182,1.76477 -0.884373,3.3489 -2.069011,4.51373 -0.609083,-0.23021 -1.312695,-0.19492 -1.920847,0.1561 -0.608998,0.35178 -0.990712,0.94393 -1.095359,1.58748 -0.592065,0.16382 -1.215774,0.25399 -1.859993,0.25399 -1.107932,0 -2.1551158,-0.26189 -3.084996,-0.7223 L 9.16156,15.37654 c 0.599262,0.2788 1.266532,0.43656 1.971117,0.43656 2.444883,0 4.451835,-1.87441 4.66189,-4.26502 z m -0.624408,5.05082 c 0.567977,-0.0147 1.124653,0.27243 1.428729,0.79903 0.442377,0.76622 0.181332,1.74578 -0.58472,2.18807 -0.766307,0.44238 -1.745611,0.18159 -2.188072,-0.58472 -0.442208,-0.76597 -0.178941,-1.7457 0.587366,-2.18807 0.239391,-0.13822 0.498526,-0.20761 0.756697,-0.21431 z"
     id="path6"
     style="fill:#ffffff;fill-opacity:1"
     inkscape:connector-curvature="0" /></svg>